<?xml version="1.0" encoding="UTF-8" standalone="no"?>
<!-- Created with Inkscape (http://www.inkscape.org/) -->

<svg
   xmlns:dc="http://purl.org/dc/elements/1.1/"
   xmlns:cc="http://creativecommons.org/ns#"
   xmlns:rdf="http://www.w3.org/1999/02/22-rdf-syntax-ns#"
   xmlns:svg="http://www.w3.org/2000/svg"
   xmlns="http://www.w3.org/2000/svg"
   xmlns:sodipodi="http://sodipodi.sourceforge.net/DTD/sodipodi-0.dtd"
   xmlns:inkscape="http://www.inkscape.org/namespaces/inkscape"
   width="210mm"
   height="297mm"
   id="svg2"
   version="1.1"
   inkscape:version="0.47 r22583"
   sodipodi:docname="ellipsejolie.svg">
  <sodipodi:namedview
     id="base"
     pagecolor="#ffffff"
     bordercolor="#666666"
     borderopacity="1.0"
     inkscape:pageopacity="0.0"
     inkscape:pageshadow="2"
     inkscape:zoom="0.35"
     inkscape:cx="108.63092"
     inkscape:cy="424.93523"
     inkscape:document-units="px"
     inkscape:current-layer="layer1"
     showgrid="false"
     inkscape:window-width="1920"
     inkscape:window-height="979"
     inkscape:window-x="0"
     inkscape:window-y="27"
     inkscape:window-maximized="1" />
  <defs
     id="defs4">
    <linearGradient
       id="linearGradient4049">
      <stop
         style="stop-color:#28170b;stop-opacity:1"
         offset="0"
         id="stop4051" />
      <stop
         id="stop4057"
         offset="0.5"
         style="stop-color:#2b1e12;stop-opacity:1;" />
      <stop
         style="stop-color:#deaa87;stop-opacity:1"
         offset="1"
         id="stop4053" />
    </linearGradient>
    <inkscape:perspective
       id="perspective10"
       inkscape:persp3d-origin="372.04724 : 350.78739 : 1"
       inkscape:vp_z="744.09448 : 526.18109 : 1"
       inkscape:vp_y="0 : 1000 : 0"
       inkscape:vp_x="0 : 526.18109 : 1"
       sodipodi:type="inkscape:persp3d" />
  </defs>
  <metadata
     id="metadata7">
    <rdf:RDF>
      <cc:Work
         rdf:about="">
        <dc:format>image/svg+xml</dc:format>
        <dc:type
           rdf:resource="http://purl.org/dc/dcmitype/StillImage" />
        <dc:title />
      </cc:Work>
    </rdf:RDF>
  </metadata>
  <g
     id="layer1"
     inkscape:groupmode="layer"
     inkscape:label="Calque 1">
    <path
       id="path5245"
       d="M 107.0785,978.25224 C 98.867158,978.97072 90.509539,977.97787 82.667823,975.34642 74.826107,972.71496 67.506842,968.44694 61.294012,962.86291 55.081164,957.27889 49.98,950.38322 46.407344,942.69564 c -3.572638,-7.68759 -5.613578,-16.16099 -5.936625,-24.78044 -0.323046,-8.61942 1.072376,-17.37811 4.113492,-25.61352 3.041115,-8.23544 7.725828,-15.94114 13.733336,-22.53282 6.007489,-6.5917 13.333395,-12.06416 21.457698,-16.0003 8.124285,-3.93614 17.040881,-6.33278 26.109705,-7.00351 9.06885,-0.67073 18.28311,0.38504 26.98008,3.09475 8.69695,2.70968 16.87008,7.07122 23.93483,12.76399 7.06476,5.69277 13.0159,12.7124 17.43603,20.53902 4.42012,7.82665 7.30608,16.45424 8.47112,25.24289 1.16505,8.78867 0.60856,17.73157 -1.59713,26.16616 -2.20569,8.43462 -6.05856,16.35438 -11.23831,23.17488 -5.17974,6.82064 -11.68197,12.53675 -18.98717,16.73112 -7.3052,4.19437 -15.40734,6.86386 -23.66684,7.82183 -8.25952,0.95816 -16.66958,0.20406 -24.56797,-2.18957 -7.898409,-2.39363 -15.278614,-6.42494 -21.556595,-11.77337 -6.277963,-5.34843 -11.448488,-12.00971 -15.094625,-19.4641 -3.646137,-7.45443 -5.764768,-15.69603 -6.169606,-24.08511 -0.404819,-8.38908 0.904731,-16.91883 3.855874,-24.92697 2.951162,-8.00816 7.541877,-15.48815 13.451361,-21.8559 5.909503,-6.36776 13.133417,-11.61804 21.151757,-15.33387 8.018354,-3.71584 16.825074,-5.89407 25.780184,-6.34842 8.95513,-0.45437 18.0518,0.81578 26.62737,3.73765 8.57558,2.92187 16.62352,7.4934 23.55939,13.39391 6.9359,5.90048 12.75444,13.12551 17.03836,21.15511 4.28392,8.02962 7.03003,16.85774 8.05169,25.84441 1.02168,8.98664 0.3183,18.12498 -2.03773,26.75233 -2.35607,8.62742 -6.36268,16.73716 -11.69956,23.74498 -5.33684,7.00781 -11.99953,12.90831 -19.46847,17.2843 -7.46892,4.3758 -15.73801,7.22393 -24.16759,8.35758 -8.42961,1.13365 -17.0129,0.55227 -25.08753,-1.672 -8.07464,-2.22444 -15.63412,-6.08935 -22.09427,-11.2749 -6.460152,-5.18537 -11.815741,-11.68693 -15.649762,-18.98488 -3.83404,-7.29813 -6.14332,-15.3867 -6.741496,-23.62619 -0.598176,-8.23951 0.515365,-16.62313 3.267976,-24.4887 2.752592,-7.86556 7.142214,-15.20653 12.848195,-21.43887 5.705962,-6.23237 12.723927,-11.35086 20.534047,-14.93863 7.81012,-3.5878 16.40636,-5.6417 25.1488,-5.97551 8.74246,-0.33381 17.62433,1.05306 25.98308,4.08782 8.35873,3.03473 16.18787,7.71527 22.90302,13.72083 6.71515,6.00554 12.3111,13.33169 16.3707,21.45842 4.05959,8.12673 6.57966,17.04799 7.37368,26.12369 0.794,9.07567 -0.13858,18.29899 -2.72534,27.00719 -2.58671,8.70819 -6.82548,16.89473 -12.39578,23.97527 -5.57028,7.08034 -12.46769,13.04931 -20.17246,17.48951 -7.70479,4.44 -16.21089,7.3482 -24.8785,8.5375 -8.66758,1.1893 -17.48988,0.6595 -25.80437,-1.5177 -8.31449,-2.1769 -16.11463,-5.9992 -22.816169,-11.1459 -6.701536,-5.14682 -12.299179,-11.61406 -16.375828,-18.88214 -4.076612,-7.26808 -6.629021,-15.33108 -7.470734,-23.54915 -0.841676,-8.21825 0.02801,-16.58494 2.536436,-24.43788 2.508499,-7.85297 6.65375,-15.18569 12.115303,-21.41418 5.461571,-6.22845 12.235062,-11.34746 19.800782,-14.94007 7.56573,-3.59264 15.91764,-5.65575 24.41602,-6.00313 8.49838,-0.34739 17.13642,1.02156 25.25174,4.03403 8.11531,3.01248 15.70141,7.66641 22.17408,13.64101 6.47269,5.97462 11.8267,13.26548 15.64509,21.35263 3.81836,8.08716 6.09792,16.96454 6.65228,25.99207 0.55436,9.02746 -0.61706,18.1985 -3.44156,26.84993 -2.82449,8.65161 -7.30004,16.77708 -13.10594,23.79238 -5.80589,7.0152 -12.93773,12.915 -20.87566,17.2815 -7.93792,4.3665 -16.67585,7.197 -25.5738,8.3047 -8.89795,1.1075 -17.94914,0.4916 -26.49093,-1.7753 -8.54174,-2.2671 -16.567626,-6.1832 -23.493073,-11.428 -6.925484,-5.2449 -12.745349,-11.814 -17.042272,-19.188 -4.296905,-7.37398 -7.067733,-15.5468 -8.125805,-23.87878 -1.058073,-8.33198 -0.40276,-16.81626 1.893534,-24.79053 2.296313,-7.97433 6.231548,-15.43223 11.485404,-21.78957 5.253838,-6.35736 11.821919,-11.60892 19.184667,-15.33777 7.362745,-3.72884 15.514095,-5.93179 23.814505,-6.42253 8.30039,-0.49075 16.74299,0.73129 24.66557,3.59341 7.92258,2.86214 15.31859,7.3623 21.60403,13.17976 6.2854,5.81747 11.455,12.94788 15.09182,20.87132 3.63684,7.92349 5.73779,16.63391 6.11657,25.49125 0.37881,8.85753 -0.96514,17.85512 -3.95902,26.33054 -2.9939,8.4752 -7.63569,16.4216 -13.60457,23.2545 -5.96888,6.8331 -13.26047,12.5477 -21.35478,16.7265 -8.09429,4.1786 -16.98524,6.8184 -26.03279,7.7328 -9.04751,0.9142 -18.24484,0.102 -26.929196,-2.3632 -8.684338,-2.4658 -16.849249,-6.5828 -23.910118,-12.0312 -7.060869,-5.4483 -13.012501,-12.2235 -17.437482,-19.8058 -4.42498,-7.5822 -7.320137,-15.96552 -8.498736,-24.51009 -1.178617,-8.54458 -0.640064,-17.24368 1.543367,-25.43486 2.1833,-8.19118 6.009678,-15.86783 11.158462,-22.44589 5.148802,-6.57808 11.615724,-12.05223 18.881377,-16.00541 7.265634,-3.95315 15.323877,-6.38218 23.535226,-7.10058 8.21134,-0.71839 16.56898,0.27442 24.41067,2.90586 7.8417,2.63143 15.16099,6.89947 21.37383,12.48354 6.21283,5.58402 11.314,12.47973 14.88663,20.16731 3.57264,7.68761 5.6136,16.16095 5.93665,24.78047 0.32304,8.61934 -1.0724,17.37799 -4.11351,25.61355 -3.04108,8.2353 -7.72581,15.941 -13.73332,22.5327 -6.00751,6.5917 -13.33341,12.0643 -21.4577,16.0004 -8.12426,3.9361 -17.04088,6.3327 -26.10972,7.0034 -9.068828,0.6708 -18.283111,-0.385 -26.980064,-3.0947 -8.696971,-2.7098 -16.8701,-7.0713 -23.934846,-12.764 -7.064746,-5.6927 -13.015896,-12.7124 -17.436016,-20.5391 -4.420137,-7.8266 -7.306074,-16.45413 -8.47113,-25.24284 -1.16502,-8.78852 -0.608546,-17.73157 1.597145,-26.16614 2.205691,-8.43458 6.058558,-16.35434 11.238303,-23.1749 5.179727,-6.82054 11.681952,-12.53663 18.987156,-16.73102 7.305203,-4.1944 15.407356,-6.86392 23.666877,-7.82198 8.259484,-0.95805 16.669565,-0.20403 24.567975,2.18962 7.89837,2.39367 15.27859,6.42493 21.55657,11.77337 6.27797,5.34845 11.44849,12.0097 15.09463,19.46414 3.64613,7.45454 5.76475,15.69599 6.16958,24.08511 0.40484,8.38912 -0.90471,16.91885 -3.85587,24.92693 -2.95114,8.00831 -7.54186,15.48821 -13.45136,21.85601 -5.9095,6.3676 -13.13338,11.6179 -21.15174,15.3339 -8.01834,3.7157 -16.825075,5.894 -25.780202,6.3483 -8.955089,0.4543 -18.051778,-0.8157 -26.627352,-3.7377 -8.575574,-2.9217 -16.623539,-7.4934 -23.559412,-13.3938 -6.93587,-5.9005 -12.754418,-13.1255 -17.038337,-21.1551 -4.283919,-8.02961 -7.030038,-16.85783 -8.0517135,-25.84448 -1.0216759,-8.98664 -0.3182974,-18.12503 2.0377495,-26.75231 2.356065,-8.62733 6.362703,-16.73716 11.699557,-23.74496 5.336872,-7.00781 11.999561,-12.90835 19.468458,-17.28427 7.468935,-4.37593 15.738028,-7.22406 24.167624,-8.35767 8.429578,-1.13363 17.012869,-0.55213 25.087511,1.67213 8.074627,2.22428 15.634127,6.08928 22.094257,11.27474 6.46017,5.18546 11.81578,11.68696 15.6498,18.98502 3.834,7.29808 6.1433,15.38662 6.74148,23.62614 0.59817,8.23941 -0.51537,16.62315 -3.26796,24.48876 -2.75261,7.86542 -7.14222,15.20641 -12.8482,21.4388 -5.70598,6.2324 -12.72394,11.3508 -20.53408,14.9387 -7.810124,3.5878 -16.406345,5.6416 -25.148784,5.9755 -8.742459,0.3337 -17.624309,-1.0532 -25.983077,-4.0879 -8.358751,-3.0348 -16.18785,-7.7152 -22.903003,-13.7209 C 19.159074,999.06902 13.563101,991.74287 9.5035185,983.61625 5.4439363,975.48944 2.9238803,966.5681 2.1298433,957.49241 1.3358248,948.41678 2.268419,939.19346 4.8551658,930.48525 c 2.5867281,-8.70822 6.8254942,-16.8948 12.3957932,-23.97516 5.57028,-7.08039 12.467696,-13.04935 20.172486,-17.48948 7.704754,-4.44012 16.210873,-7.34824 24.87846,-8.5376 8.667605,-1.18936 17.489906,-0.65938 25.804375,1.51767 8.314506,2.17698 16.11465,5.99916 22.81619,11.146 6.70151,5.14681 12.29919,11.61401 16.37581,18.8821 4.07661,7.26806 6.62904,15.33096 7.47073,23.54917 0.84169,8.21819 -0.028,16.58486 -2.53642,24.43776 -2.5085,7.853 -6.65375,15.18582 -12.11532,21.41431 -5.46157,6.22849 -12.23505,11.34744 -19.80078,14.94002 -7.565716,3.59258 -15.917639,5.65586 -24.416004,6.00306 -8.498383,0.3475 -17.136418,-1.0216 -25.251742,-4.03406 -8.115324,-3.01249 -15.701408,-7.66637 -22.174079,-13.6409 -6.472674,-5.97471 -11.826724,-13.26542 -15.645088,-21.35271 -3.8183826,-8.08711 -6.0979253,-16.96447 -6.6522839,-25.992 -0.5543771,-9.02754 0.6170423,-18.19843 3.4415567,-26.84995 2.8244962,-8.65152 7.3000462,-16.77716 13.1059242,-23.79239 5.805915,-7.01526 12.937758,-12.91487 20.875679,-17.28149 7.937903,-4.3666 16.675835,-7.19707 25.573787,-8.30466 8.897971,-1.10758 17.949154,-0.49171 26.490928,1.77531 8.541772,2.26706 16.567642,6.18312 23.493112,11.42794 6.92545,5.24484 12.74531,11.81403 17.04223,19.18804 4.29693,7.37403 7.06777,15.5468 8.12583,23.87873 1.05805,8.33193 0.40276,16.81621 -1.89354,24.79055 -2.29631,7.97433 -6.23154,15.4323 -11.4854,21.78954 -5.25386,6.35741 -11.82192,11.609 -19.18467,15.33775 -7.36273,3.72893 -15.514115,5.93186 -23.814504,6.42253 -8.300389,0.49086 -16.742989,-0.73128 -24.665569,-3.59332 -7.92258,-2.86223 -15.31859,-7.36233 -21.60401,-13.17972 -6.28542,-5.81759 -11.455016,-12.94802 -15.09184,-20.87142 -3.636861,-7.92343 -5.737795,-16.63385 -6.116587,-25.49129 -0.378793,-8.85743 0.965151,-17.8551 3.959036,-26.33037 2.993903,-8.4753 7.635689,-16.42167 13.604571,-23.25473 5.968885,-6.83308 13.260472,-12.54759 21.35476,-16.72633 8.094306,-4.17875 16.985264,-6.81854 26.032793,-7.73278 9.047548,-0.91425 18.24486,-0.1024 26.92921,2.36322 8.68436,2.46561 16.84923,6.58276 23.91012,12.03112 7.06087,5.44835 13.0125,12.22347 17.43746,19.80572 4.42499,7.58224 7.32016,15.96553 8.49876,24.51011 1.1786,8.54457 0.64004,17.24368 -1.54337,25.43484 -2.18332,8.1912 -6.00968,15.8679 -11.15848,22.44598 -5.14876,6.57808 -11.61572,12.05229 -18.88136,16.00531 -7.26563,3.95321 -15.32387,6.38228 -23.53522,7.10057 z"
       style="fill:#343b45;fill-opacity:1;stroke:#d4ddd3;stroke-width:3.71019316;stroke-miterlimit:4;stroke-opacity:1;stroke-dasharray:none" />
  </g>
</svg>
