# Blender3D v249 OBJ File: 
# www.blender3d.org
mtllib cylindre_tex.mtl
o Cylinder
v 0.388144 0.929541 -1.338967
v 0.512507 0.813886 -1.241053
v 0.604917 0.681936 -1.129343
v 0.661823 0.538762 -1.008131
v 0.681037 0.389866 -0.882074
v 0.661823 0.240970 -0.756018
v 0.604917 0.097796 -0.634806
v 0.512507 -0.034154 -0.523096
v 0.388144 -0.149809 -0.425182
v 0.236608 -0.244725 -0.344826
v 0.063721 -0.315254 -0.285116
v -0.123872 -0.358685 -0.248346
v -0.318963 -0.373350 -0.235931
v -0.514053 -0.358685 -0.248346
v -0.701646 -0.315253 -0.285116
v -0.874533 -0.244725 -0.344826
v -1.026070 -0.149809 -0.425182
v -1.150433 -0.034154 -0.523097
v -1.242842 0.097797 -0.634806
v -1.299748 0.240971 -0.756019
v -1.318963 0.389867 -0.882075
v -1.299748 0.538763 -1.008131
v -1.242842 0.681937 -1.129343
v -1.150432 0.813887 -1.241053
v -1.026068 0.929542 -1.338967
v -0.874532 1.024458 -1.419324
v -0.701645 1.094986 -1.479033
v -0.514051 1.138417 -1.515803
v -0.318961 1.153082 -1.528218
v -0.123871 1.138417 -1.515802
v 0.063722 1.094985 -1.479033
v 0.236609 1.024456 -1.419322
v 0.388146 2.221828 0.187466
v 0.512508 2.106172 0.285380
v 0.604918 1.974222 0.397090
v 0.661823 1.831048 0.518303
v 0.681037 1.682152 0.644359
v 0.661822 1.533255 0.770415
v 0.604916 1.390082 0.891627
v 0.512506 1.258132 1.003336
v 0.388143 1.142478 1.101251
v 0.236607 1.047562 1.181607
v 0.063721 0.977034 1.241316
v -0.123872 0.933602 1.278086
v -0.318962 0.918937 1.290501
v -0.514052 0.933602 1.278086
v -0.701645 0.977033 1.241317
v -0.874531 1.047562 1.181607
v -1.026068 1.142477 1.101251
v -1.150431 1.258132 1.003337
v -1.242841 1.390081 0.891628
v -1.299747 1.533255 0.770416
v -1.318963 1.682150 0.644360
v -1.299749 1.831046 0.518304
v -1.242844 1.974220 0.397092
v -1.150435 2.106170 0.285382
v -1.026073 2.221826 0.187467
v -0.874538 2.316742 0.107111
v -0.701652 2.387271 0.047400
v -0.514059 2.430703 0.010630
v -0.318969 2.445369 -0.001786
v -0.123879 2.430705 0.010629
v 0.063714 2.387275 0.047397
v 0.236601 2.316747 0.107106
v -0.318963 0.389866 -0.882074
v -0.318963 1.682153 0.644358
vn -0.000000 -0.646143 -0.763216
vn 0.000000 0.646143 0.763216
vn 0.000000 -0.646144 -0.763216
vn -0.000000 0.646144 0.763216
vn 0.634394 0.589973 -0.499475
vn 0.634390 0.589976 -0.499477
vn 0.471390 0.673099 -0.569850
vn 0.471398 0.673096 -0.569848
vn 0.290278 0.730354 -0.618322
vn 0.290286 0.730351 -0.618321
vn 0.098010 0.759542 -0.643032
vn 0.098019 0.759540 -0.643032
vn -0.098024 0.759540 -0.643031
vn -0.098016 0.759541 -0.643033
vn -0.290291 0.730351 -0.618319
vn -0.290283 0.730352 -0.618321
vn -0.471402 0.673095 -0.569846
vn -0.471395 0.673097 -0.569848
vn -0.634397 0.589971 -0.499473
vn -0.634392 0.589974 -0.499476
vn -0.773014 0.484176 -0.409906
vn -0.773009 0.484180 -0.409910
vn -0.881924 0.359774 -0.304587
vn -0.881921 0.359778 -0.304591
vn -0.956942 0.221547 -0.187563
vn -0.956940 0.221551 -0.187566
vn -0.995185 0.074805 -0.063330
vn -0.995185 0.074809 -0.063334
vn -0.995184 -0.074811 0.063335
vn -0.995185 -0.074808 0.063333
vn -0.956939 -0.221552 0.187568
vn -0.956941 -0.221549 0.187565
vn -0.881920 -0.359779 0.304592
vn -0.881922 -0.359777 0.304589
vn -0.773009 -0.484180 0.409910
vn -0.773011 -0.484179 0.409909
vn -0.634392 -0.589975 0.499477
vn -0.634394 -0.589974 0.499475
vn -0.471395 -0.673097 0.569848
vn -0.471397 -0.673096 0.569848
vn -0.290284 -0.730352 0.618321
vn -0.290285 -0.730352 0.618321
vn -0.098017 -0.759541 0.643032
vn 0.098018 -0.759541 0.643032
vn 0.098017 -0.759541 0.643032
vn 0.290284 -0.730352 0.618321
vn 0.290285 -0.730352 0.618321
vn 0.471396 -0.673096 0.569848
vn 0.471397 -0.673096 0.569848
vn 0.634393 -0.589974 0.499476
vn 0.773010 -0.484179 0.409909
vn 0.773010 -0.484180 0.409910
vn 0.881921 -0.359777 0.304590
vn 0.881920 -0.359779 0.304591
vn 0.956940 -0.221550 0.187565
vn 0.956940 -0.221551 0.187567
vn 0.995185 -0.074808 0.063333
vn 0.995184 -0.074810 0.063335
vn 0.995185 0.074808 -0.063333
vn 0.995185 0.074807 -0.063332
vn 0.956940 0.221550 -0.187566
vn 0.956941 0.221548 -0.187564
vn 0.881921 0.359777 -0.304590
vn 0.881922 0.359776 -0.304589
vn 0.773010 0.484179 -0.409909
vn 0.773012 0.484178 -0.409908
g Cylinder_Cylinder_Material.002
usemtl Material.002
s off
f 65//1 1//1 2//1
f 66//2 34//2 33//2
f 65//3 2//3 3//3
f 66//4 35//4 34//4
f 65//3 3//3 4//3
f 66//2 36//2 35//2
f 65//1 4//1 5//1
f 66//4 37//4 36//4
f 65//3 5//3 6//3
f 66//2 38//2 37//2
f 65//3 6//3 7//3
f 66//2 39//2 38//2
f 65//1 7//1 8//1
f 66//4 40//4 39//4
f 65//3 8//3 9//3
f 66//4 41//4 40//4
f 65//3 9//3 10//3
f 66//4 42//4 41//4
f 65//1 10//1 11//1
f 66//2 43//2 42//2
f 65//1 11//1 12//1
f 66//2 44//2 43//2
f 65//1 12//1 13//1
f 66//2 45//2 44//2
f 65//1 13//1 14//1
f 66//4 46//4 45//4
f 65//1 14//1 15//1
f 66//2 47//2 46//2
f 65//3 15//3 16//3
f 66//2 48//2 47//2
f 65//1 16//1 17//1
f 66//4 49//4 48//4
f 65//3 17//3 18//3
f 66//4 50//4 49//4
f 65//1 18//1 19//1
f 66//2 51//2 50//2
f 65//1 19//1 20//1
f 66//2 52//2 51//2
f 65//3 20//3 21//3
f 66//4 53//4 52//4
f 65//3 21//3 22//3
f 66//2 54//2 53//2
f 65//1 22//1 23//1
f 66//4 55//4 54//4
f 65//3 23//3 24//3
f 66//4 56//4 55//4
f 65//3 24//3 25//3
f 66//2 57//2 56//2
f 65//1 25//1 26//1
f 66//4 58//4 57//4
f 65//3 26//3 27//3
f 66//4 59//4 58//4
f 65//3 27//3 28//3
f 66//4 60//4 59//4
f 65//1 28//1 29//1
f 66//2 61//2 60//2
f 65//1 29//1 30//1
f 66//2 62//2 61//2
f 65//1 30//1 31//1
f 66//2 63//2 62//2
f 65//1 31//1 32//1
f 66//4 64//4 63//4
f 32//3 1//3 65//3
f 66//4 33//4 64//4
f 33//5 1//5 32//5
f 33//6 32//6 64//6
f 31//7 63//7 64//7
f 31//8 64//8 32//8
f 30//9 62//9 63//9
f 30//10 63//10 31//10
f 29//11 61//11 62//11
f 29//12 62//12 30//12
f 28//13 60//13 61//13
f 28//14 61//14 29//14
f 27//15 59//15 60//15
f 27//16 60//16 28//16
f 26//17 58//17 59//17
f 26//18 59//18 27//18
f 25//19 57//19 58//19
f 25//20 58//20 26//20
f 24//21 56//21 57//21
f 24//22 57//22 25//22
f 23//23 55//23 56//23
f 23//24 56//24 24//24
f 22//25 54//25 55//25
f 22//26 55//26 23//26
f 21//27 53//27 54//27
f 21//28 54//28 22//28
f 20//29 52//29 53//29
f 20//30 53//30 21//30
f 19//31 51//31 52//31
f 19//32 52//32 20//32
f 18//33 50//33 51//33
f 18//34 51//34 19//34
f 17//35 49//35 50//35
f 17//36 50//36 18//36
f 16//37 48//37 49//37
f 16//38 49//38 17//38
f 15//39 47//39 48//39
f 15//40 48//40 16//40
f 14//41 46//41 47//41
f 14//42 47//42 15//42
f 13//43 45//43 46//43
f 13//43 46//43 14//43
f 12//44 44//44 45//44
f 12//45 45//45 13//45
f 11//46 43//46 44//46
f 11//47 44//47 12//47
f 10//48 42//48 43//48
f 10//49 43//49 11//49
f 9//50 41//50 10//50
f 41//50 42//50 10//50
f 8//51 40//51 9//51
f 40//52 41//52 9//52
f 7//53 39//53 8//53
f 39//54 40//54 8//54
f 6//55 38//55 7//55
f 38//56 39//56 7//56
f 5//57 37//57 6//57
f 37//58 38//58 6//58
f 4//59 36//59 5//59
f 36//60 37//60 5//60
f 3//61 35//61 4//61
f 35//62 36//62 4//62
f 2//63 34//63 3//63
f 34//64 35//64 3//64
f 1//65 33//65 2//65
f 33//66 34//66 2//66
