# Blender3D v249 OBJ File: 
# www.blender3d.org
mtllib hutte_tex.mtl
o Cone
v 1.272694 -0.844242 -0.356032
v 1.520308 -0.844242 0.053572
v 1.549207 -0.844242 0.531330
v 1.352771 -0.844242 0.967794
v 0.976000 -0.844242 1.262975
v 0.505209 -0.844242 1.349251
v 0.048250 -0.844242 1.206857
v -0.290194 -0.844242 0.868413
v -0.432588 -0.844242 0.411454
v -0.346312 -0.844242 -0.059338
v -0.051131 -0.844242 -0.436108
v 0.385333 -0.844242 -0.632545
v 0.863091 -0.844242 -0.603645
v 0.565588 1.155758 0.351075
v 0.565588 -0.844242 0.351075
vn 0.769856 0.436727 -0.465394
vn 0.897953 0.436727 -0.054316
vn 0.820340 0.436727 0.369205
vn 0.554797 0.436727 0.708146
vn 0.162156 0.436727 0.884859
vn -0.267632 0.436727 0.858861
vn -0.636109 0.436727 0.636109
vn -0.858861 0.436727 0.267632
vn -0.884859 0.436727 -0.162156
vn -0.708146 0.436727 -0.554797
vn -0.369205 0.436727 -0.820340
vn 0.054317 0.436727 -0.897953
vn 0.465394 0.436727 -0.769856
vn 0.000000 -1.000000 0.000000
g Cone_Cone_Material.001
usemtl Material.001
s off
f 2//1 1//1 14//1
f 14//2 3//2 2//2
f 14//3 4//3 3//3
f 14//4 5//4 4//4
f 14//5 6//5 5//5
f 14//6 7//6 6//6
f 14//7 8//7 7//7
f 14//8 9//8 8//8
f 14//9 10//9 9//9
f 14//10 11//10 10//10
f 14//11 12//11 11//11
f 14//12 13//12 12//12
f 14//13 1//13 13//13
f 15//14 1//14 2//14
f 15//14 2//14 3//14
f 15//14 3//14 4//14
f 15//14 4//14 5//14
f 15//14 5//14 6//14
f 15//14 6//14 7//14
f 15//14 7//14 8//14
f 15//14 8//14 9//14
f 15//14 9//14 10//14
f 15//14 10//14 11//14
f 15//14 11//14 12//14
f 15//14 12//14 13//14
f 13//14 1//14 15//14
